#!OML:ASF X:\für Bonn\!DataBase\2005_08_10_Bjorn_Final\c3d\bjorn.ASF
:FULLY-SPECIFIED
:DEGREES
189
root -0.598744 17.4225 3.9453 -181.515 -5.23206 177.062
lowerback 11.8648 4.38263 -4.42335
upperback 16.4223 2.29309 -1.30787
thorax 11.0091 -0.669158 0.692984
lowerneck -10.5181 3.20847 -2.06912
upperneck -2.49779 4.19358 -6.82611
head 1.10457 1.78968 -1.6316
rclavicle 1.98785e-015 -2.98177e-014
rhumerus -25.3728 -10.9546 -88.4234
rradius 38.7476
rwrist -0.749434
rhand -12.9128 20.7022
rfingers 7.12502
rthumb 13.1773 -8.86138
lclavicle 1.98785e-015 -2.98177e-014
lhumerus -12.8609 -39.7727 72.6006
lradius 59.1818
lwrist -9.77773
lhand -46.5911 -30.2283
lfingers 7.12502
lthumb -19.3141 -1.16746
rfemur -38.0783 9.30832 6.38213
rtibia 59.8925
rfoot -20.1862 10.1683
rtoes -23.1234
lfemur -17.3157 4.74464 -18.8954
ltibia 57.5435
lfoot -31.3489 3.34348
ltoes -25.1603
190
root -0.61438 17.4119 3.97524 -181.536 -5.29966 177.043
lowerback 11.932 4.33824 -4.43137
upperback 16.4539 2.21202 -1.30241
thorax 11.0127 -0.717526 0.7027
lowerneck -10.2297 3.3304 -1.86631
upperneck -2.75751 4.30658 -6.91932
head 0.982821 1.85678 -1.69558
rclavicle -2.98177e-015 2.96189e-014
rhumerus -25.6085 -10.6254 -88.5215
rradius 38.8237
rwrist -0.811141
rhand -13.0352 20.7249
rfingers 7.12502
rthumb 13.0592 -8.84629
lclavicle -2.98177e-015 2.96189e-014
lhumerus -13.7902 -39.4649 73.8723
lradius 58.8491
lwrist -9.96655
lhand -46.5231 -30.7257
lfingers 7.12502
lthumb -19.2487 -1.65827
rfemur -38.0471 9.3073 6.31055
rtibia 59.8241
rfoot -20.3057 9.922
rtoes -22.9815
lfemur -17.436 4.82093 -18.9581
ltibia 57.5972
lfoot -31.4499 3.04122
ltoes -24.7194
191
root -0.628462 17.4155 3.99823 -181.542 -5.32979 177.013
lowerback 11.9486 4.31202 -4.4502
upperback 16.4705 2.16719 -1.3127
thorax 11.0254 -0.744856 0.701851
lowerneck -10.0017 3.45154 -1.61744
upperneck -3.05975 4.41014 -7.02921
head 0.860302 1.91645 -1.77347
rclavicle 8.34896e-015 3.69739e-014
rhumerus -25.9083 -10.3172 -88.6147
rradius 38.9551
rwrist -0.785028
rhand -13.141 20.7186
rfingers 7.12502
rthumb 12.9573 -8.85903
lclavicle 8.34896e-015 3.69739e-014
lhumerus -14.8065 -39.2819 75.0407
lradius 58.5688
lwrist -10.1416
lhand -46.5704 -31.1862
lfingers 7.12502
lthumb -19.2942 -2.12337
rfemur -37.9878 9.39476 6.21744
rtibia 59.6926
rfoot -20.3611 9.65104
rtoes -22.7364
lfemur -17.48 4.90474 -19.034
ltibia 57.5268
lfoot -31.4719 2.84255
ltoes -24.5701
192
root -0.640636 17.4277 4.01511 -181.51 -5.35967 177.013
lowerback 11.901 4.27871 -4.44918
upperback 16.4639 2.13133 -1.31153
thorax 11.0463 -0.760483 0.704826
lowerneck -9.89538 3.58079 -1.38457
upperneck -3.20732 4.54651 -7.12662
head 0.808988 1.98742 -1.84173
rclavicle -3.18055e-015 -3.97569e-015
rhumerus -26.2409 -10.0379 -88.6625
rradius 39.0755
rwrist -0.717246
rhand -13.2181 20.8066
rfingers 7.12502
rthumb 12.8829 -8.77579
lclavicle -3.18055e-015 -3.97569e-015
lhumerus -15.814 -39.1108 76.2217
lradius 58.3465
lwrist -10.3762
lhand -46.5496 -31.21
lfingers 7.12502
lthumb -19.2743 -2.14514
rfemur -37.9189 9.51238 6.1589
rtibia 59.5023
rfoot -20.4005 9.33206
rtoes -22.6171
lfemur -17.5003 4.9591 -19.0732
ltibia 57.356
lfoot -31.4322 2.6875
ltoes -24.4956
193
root -0.650409 17.4456 4.0278 -181.465 -5.3867 177.071
lowerback 11.8377 4.24037 -4.3766
upperback 16.4274 2.10631 -1.31989
thorax 11.0423 -0.755734 0.65978
lowerneck -9.9529 3.69697 -1.13559
upperneck -3.07831 4.70044 -7.13683
head 0.87296 2.06268 -1.88066
rclavicle -1.90833e-014 4.25399e-014
rhumerus -26.6346 -9.82955 -88.7159
rradius 39.2335
rwrist -0.515659
rhand -13.327 20.9774
rfingers 7.12502
rthumb 12.7779 -8.6116
lclavicle -1.90833e-014 4.25399e-014
lhumerus -16.7988 -39.062 77.3442
lradius 58.2401
lwrist -10.3423
lhand -46.1608 -30.548
lfingers 7.12502
lthumb -18.9003 -1.44627
rfemur -37.8265 9.63304 6.16915
rtibia 59.2634
rfoot -20.4476 9.09681
rtoes -22.6171
lfemur -17.4909 4.98058 -19.0424
ltibia 57.1043
lfoot -31.3588 2.55035
ltoes -24.518
194
root -0.658257 17.4678 4.03832 -181.39 -5.42711 177.127
lowerback 11.7562 4.19467 -4.3122
upperback 16.363 2.08346 -1.32621
thorax 11.0142 -0.745431 0.623309
lowerneck -9.97275 3.81419 -0.879395
upperneck -2.93887 4.85492 -7.18351
head 0.935943 2.1384 -1.93305
rclavicle -1.11319e-014 1.07344e-014
rhumerus -26.9954 -9.64555 -88.7436
rradius 39.3434
rwrist -0.328533
rhand -13.4263 21.1832
rfingers 7.12502
rthumb 12.6823 -8.41174
lclavicle -1.11319e-014 1.07344e-014
lhumerus -17.7749 -38.9811 78.4922
lradius 58.104
lwrist -10.3714
lhand -45.7414 -29.7488
lfingers 7.12502
lthumb -18.4969 -0.608179
rfemur -37.7363 9.6931 6.18416
rtibia 58.9915
rfoot -20.4761 9.0035
rtoes -22.6224
lfemur -17.4859 4.96906 -19.014
ltibia 56.7985
lfoot -31.2455 2.41356
ltoes -24.495
195
root -0.664557 17.4943 4.04848 -181.295 -5.49452 177.196
lowerback 11.6945 4.14582 -4.21068
upperback 16.2696 2.06689 -1.32703
thorax 10.9406 -0.722595 0.573665
lowerneck -9.98068 3.91972 -0.66131
upperneck -2.80367 4.99661 -7.19722
head 0.993249 2.20927 -1.96876
rclavicle 2.18663e-015 4.01545e-014
rhumerus -27.3355 -9.54141 -88.7326
rradius 39.4216
rwrist -0.121374
rhand -13.4973 21.3464
rfingers 7.12502
rthumb 12.6138 -8.25281
lclavicle 2.18663e-015 4.01545e-014
lhumerus -18.6979 -38.9367 79.6403
lradius 57.9271
lwrist -10.5737
lhand -45.404 -28.67
lfingers 7.12502
lthumb -18.1723 0.501123
rfemur -37.6386 9.70771 6.21424
rtibia 58.6961
rfoot -20.4549 9.10537
rtoes -22.5185
lfemur -17.4822 4.91282 -18.9661
ltibia 56.4572
lfoot -31.1292 2.23329
ltoes -24.3547
196
root -0.66891 17.5229 4.05809 -181.184 -5.56379 177.306
lowerback 11.627 4.09529 -4.05324
upperback 16.1581 2.0584 -1.32339
thorax 10.8501 -0.686156 0.498936
lowerneck -9.88223 4.00437 -0.407874
upperneck -2.79907 5.09062 -7.26703
head 0.992167 2.25862 -2.03318
rclavicle 2.66371e-014 2.38542e-015
rhumerus -27.6836 -9.51609 -88.7064
rradius 39.5171
rwrist 0.114096
rhand -13.5125 21.4257
rfingers 7.12502
rthumb 12.5992 -8.17435
lclavicle 2.66371e-014 2.38542e-015
lhumerus -19.5946 -38.9103 80.7462
lradius 57.7919
lwrist -10.7974
lhand -45.2065 -27.8649
lfingers 7.12502
lthumb -17.9823 1.32378
rfemur -37.561 9.65888 6.30063
rtibia 58.3947
rfoot -20.42 9.44945
rtoes -22.4954
lfemur -17.485 4.85354 -18.8672
ltibia 56.0849
lfoot -31.0053 2.06043
ltoes -24.3192
197
root -0.671327 17.5537 4.06705 -181.051 -5.62461 177.403
lowerback 11.5561 4.06065 -3.87031
upperback 16.0143 2.08517 -1.34701
thorax 10.7238 -0.622147 0.381259
lowerneck -9.78766 4.0805 -0.088634
upperneck -2.7173 5.17749 -7.3244
head 1.01852 2.3046 -2.1052
rclavicle 1.59028e-014 6.36111e-015
rhumerus -28.1212 -9.63824 -88.6779
rradius 39.6627
rwrist 0.391207
rhand -13.5222 21.4492
rfingers 7.12502
rthumb 12.5898 -8.15144
lclavicle 1.59028e-014 6.36111e-015
lhumerus -20.464 -38.9607 81.7983
lradius 57.7177
lwrist -10.9032
lhand -45.2107 -27.6697
lfingers 7.12502
lthumb -17.9864 1.5186
rfemur -37.5014 9.56467 6.37985
rtibia 58.0902
rfoot -20.3546 9.97286
rtoes -22.5258
lfemur -17.4961 4.79541 -18.7748
ltibia 55.6773
lfoot -30.8477 1.86489
ltoes -24.1987
198
root -0.673038 17.5864 4.07486 -180.961 -5.67577 177.445
lowerback 11.5267 4.03526 -3.75782
upperback 15.8792 2.11026 -1.36038
thorax 10.5818 -0.570984 0.312053
lowerneck -9.8524 4.17409 0.128539
upperneck -2.39381 5.32441 -7.27636
head 1.14561 2.37775 -2.11866
rclavicle 2.68359e-014 3.51849e-014
rhumerus -28.6258 -9.72524 -88.5999
rradius 39.8764
rwrist 0.667691
rhand -13.5073 21.4675
rfingers 7.12502
rthumb 12.6042 -8.13226
lclavicle 2.68359e-014 3.51849e-014
lhumerus -21.3352 -38.9271 82.8726
lradius 57.7015
lwrist -10.8984
lhand -45.2717 -27.8001
lfingers 7.12502
lthumb -18.0451 1.38276
rfemur -37.3914 9.42583 6.41663
rtibia 57.7888
rfoot -20.3122 10.5879
rtoes -22.7074
lfemur -17.4189 4.73357 -18.7392
ltibia 55.2203
lfoot -30.6792 1.65598
ltoes -24.0553
199
root -0.672961 17.6212 4.08069 -180.917 -5.72901 177.39
lowerback 11.5585 4.03316 -3.69411
upperback 15.7455 2.1567 -1.4299
thorax 10.4073 -0.513471 0.206752
lowerneck -9.83761 4.25544 0.4407
upperneck -2.09808 5.44264 -7.23993
head 1.25338 2.43957 -2.15523
rclavicle 8.74653e-015 -4.96962e-014
rhumerus -29.2075 -9.97057 -88.5597
rradius 40.1426
rwrist 0.970354
rhand -13.4885 21.4928
rfingers 7.12502
rthumb 12.6222 -8.10583
lclavicle 8.74653e-015 -4.96962e-014
lhumerus -22.2255 -38.9792 83.8719
lradius 57.7315
lwrist -10.8421
lhand -45.3795 -28.0379
lfingers 7.12502
lthumb -18.1488 1.1354
rfemur -37.2026 9.23529 6.36902
rtibia 57.4877
rfoot -20.2094 11.2407
rtoes -22.6324
lfemur -17.2396 4.65074 -18.8081
ltibia 54.7075
lfoot -30.4917 1.5094
ltoes -23.9816
200
root -0.671813 17.6595 4.08367 -180.846 -5.78949 177.306
lowerback 11.5389 4.0307 -3.67255
upperback 15.6155 2.20488 -1.49449
thorax 10.2651 -0.460166 0.130559
lowerneck -9.80689 4.35028 0.720541
upperneck -1.82332 5.57854 -7.19266
head 1.35127 2.51138 -2.18204
rclavicle -5.96354e-016 -1.66979e-014
rhumerus -29.7746 -10.1952 -88.5059
rradius 40.4164
rwrist 1.27323
rhand -13.5061 21.525
rfingers 7.12502
rthumb 12.6053 -8.07466
lclavicle -5.96354e-016 -1.66979e-014
lhumerus -23.103 -39.0338 84.853
lradius 57.8608
lwrist -10.5779
lhand -45.2154 -28.0352
lfingers 7.12502
lthumb -17.9909 1.15265
rfemur -37.0161 9.0062 6.29667
rtibia 57.1867
rfoot -20.0805 11.8696
rtoes -22.5888
lfemur -17.0436 4.52025 -18.9114
ltibia 54.1396
lfoot -30.2906 1.36415
ltoes -23.7834
201
root -0.66915 17.701 4.08368 -180.72 -5.87249 177.236
lowerback 11.4283 3.9713 -3.69624
upperback 15.4609 2.19052 -1.51959
thorax 10.144 -0.44014 0.126734
lowerneck -9.6977 4.48419 0.887064
upperneck -1.58975 5.77299 -7.1908
head 1.42257 2.61329 -2.2022
rclavicle -7.15625e-015 2.08724e-014
rhumerus -30.3342 -10.1663 -88.4183
rradius 40.6779
rwrist 1.41039
rhand -13.5307 21.5222
rfingers 7.12502
rthumb 12.5816 -8.07892
lclavicle -7.15625e-015 2.08724e-014
lhumerus -24.0574 -38.9068 85.9062
lradius 57.9742
lwrist -10.364
lhand -44.9814 -27.8905
lfingers 7.12502
lthumb -17.7657 1.31792
rfemur -36.8638 8.74067 6.24235
rtibia 56.8861
rfoot -19.936 12.4819
rtoes -22.6009
lfemur -16.8737 4.36086 -18.9977
ltibia 53.5194
lfoot -30.0445 1.20906
ltoes -23.5793
